<?xml version="1.0" encoding="UTF-8" standalone="no"?>
<svg width="6px" height="10px" viewBox="0 0 6 10" version="1.1" xmlns="http://www.w3.org/2000/svg" xmlns:xlink="http://www.w3.org/1999/xlink">
    <!-- Generator: sketchtool 3.8.3 (29802) - http://www.bohemiancoding.com/sketch -->
    <title>D5175CB0-9DDE-494D-B10C-4322A17EC100</title>
    <desc>Created with sketchtool.</desc>
    <defs></defs>
    <g id="Pages" stroke="none" stroke-width="1" fill="none" fill-rule="evenodd">
        <g id="Vrachrb-MainPage-v2" transform="translate(-494.000000, -2110.000000)" fill="#4A4850">
            <g id="Lenta" transform="translate(120.000000, 980.000000)">
                <g id="More-bttns" transform="translate(181.000000, 1125.000000)">
                    <g id="More">
                        <path d="M198.704401,9.32082186 C198.901173,9.5096224 199,9.75532174 199,10.0010211 C199,10.2467204 198.901173,10.4924198 198.704401,10.6794961 C198.704401,10.6794961 195.100738,14.3770556 194.731901,14.7270694 C194.363064,15.0788074 193.69951,15.1029463 193.306849,14.7270694 C192.913305,14.3529167 192.882421,13.8296202 193.306849,13.3701194 L196.613147,10.0010211 L193.306849,6.63192279 C192.882421,6.17242193 192.913305,5.64826334 193.306849,5.27324856 C193.69951,4.89737168 194.363064,4.92064846 194.731901,5.27324856 C195.100738,5.62498656 198.704401,9.32082186 198.704401,9.32082186 Z" id="Shape"></path>
                    </g>
                </g>
            </g>
        </g>
    </g>
</svg>