<?xml version="1.0" encoding="UTF-8" standalone="no"?>
<svg width="184px" height="105px" viewBox="0 0 184 105" version="1.1" xmlns="http://www.w3.org/2000/svg" xmlns:xlink="http://www.w3.org/1999/xlink">
    <!-- Generator: sketchtool 3.8.3 (29802) - http://www.bohemiancoding.com/sketch -->
    <title>BD559E0F-870F-48F3-BE33-94EE37A98832</title>
    <desc>Created with sketchtool.</desc>
    <defs>
        <path d="M21.009531,0 L134.990469,0 C139.414011,0 142.442544,3.58364532 141.754518,8.0066703 L130.245482,81.9933297 C129.557621,86.4152916 125.421458,90 120.990469,90 L7.00953096,90 C2.58598916,90 -0.442544062,86.4163547 0.245482047,81.9933297 L11.754518,8.0066703 C12.4423787,3.5847084 16.578542,0 21.009531,0 Z" id="path-1"></path>
        <mask id="mask-2" maskContentUnits="userSpaceOnUse" maskUnits="objectBoundingBox" x="0" y="0" width="141.703943" height="90" fill="white">
            <use xlink:href="#path-1"></use>
        </mask>
    </defs>
    <g id="Ask-Question" stroke="none" stroke-width="1" fill="none" fill-rule="evenodd">
        <g id="Vrachrb-AskQuestion-Succes" transform="translate(-607.000000, -355.000000)">
            <g id="Main" transform="translate(120.000000, 295.000000)">
                <g id="Envelope" transform="translate(487.000000, 60.000000)">
                    <g transform="translate(42.000000, 0.000000)">
                        <use id="Rectangle-116" stroke="#27C569" mask="url(#mask-2)" stroke-width="4" xlink:href="#path-1"></use>
                        <path d="M19.8974826,8.99609375 L65.4901711,52.1579439 C68.4630992,54.9723662 73.927545,54.8936639 77.7052084,51.9745412 L133.324012,8.99609375" id="Path-25" stroke="#27C569" stroke-width="2.5" stroke-linecap="round" stroke-linejoin="round"></path>
                        <path d="M9.40738932,81.9067383 L54.5790148,55.2680664" id="Path-26" stroke="#27C569" stroke-width="2.5" stroke-linecap="round" stroke-linejoin="round"></path>
                        <path d="M122.328483,81.6386719 L85.4444444,55" id="Path-26-Copy" stroke="#27C569" stroke-width="2.5" stroke-linecap="round" stroke-linejoin="round"></path>
                        <path d="M74.0622222,33.44 L75.0403556,29.312 C80.6318222,28.544 85.6067556,25.568 86.5400889,19.568 L86.5550222,19.472 C87.4062222,14 83.7614222,9.968 77.2814222,9.968 C72.6254222,9.968 69.0627556,11.888 66.0856889,14.672 C65.6419556,15.056 65.3752889,15.536 65.3080889,15.968 C65.1587556,16.928 65.8147556,17.648 66.7747556,17.648 C67.3027556,17.648 67.7720889,17.408 68.1528889,17.12 C70.6787556,14.768 73.4392889,13.376 76.6552889,13.376 C80.9752889,13.376 83.2302222,16.16 82.6926222,19.616 L82.6776889,19.712 C82.0504889,23.744 78.4835556,26 73.3358222,26.384 C72.4088889,26.48 71.7283556,27.152 71.6824889,28.064 L71.3742222,33.44 C71.3507556,34.208 71.7966222,34.736 72.4206222,34.736 L72.6126222,34.736 C73.2846222,34.736 73.8467556,34.208 74.0622222,33.44 Z M69.0446222,41.936 C68.8430222,43.232 69.6942222,44.24 70.9902222,44.24 C72.2862222,44.24 73.4510222,43.232 73.6526222,41.936 L73.8019556,40.976 C74.0035556,39.68 73.1448889,38.72 71.8488889,38.72 C70.5528889,38.72 69.3955556,39.68 69.1939556,40.976 L69.0446222,41.936 Z" id="?" fill="#27C569"></path>
                    </g>
                    <ellipse id="Oval-19" fill="#EBF3EE" cx="102.5" cy="102.5" rx="64.5" ry="2.5"></ellipse>
                    <g id="Plume" transform="translate(25.500000, 45.000000) scale(-1, 1) translate(-25.500000, -45.000000) " fill="#27C569" opacity="0.3">
                        <path d="M1.49640068,0 L48.5035993,0 C49.3300386,0 50.1035685,0.665797234 50.2333333,1.5 C50.3621998,2.32842712 49.7976604,3 48.970266,3 L1.96306735,3 C1.13662807,3 0.363098208,2.33420277 0.233333333,1.5 C0.104466892,0.671572875 0.669006258,0 1.49640068,0 Z" id="Rectangle-117"></path>
                        <path d="M4.13948815,17 L41.1494007,17 C41.9750906,17 42.7480129,17.6657972 42.8777778,18.5 C43.0066442,19.3284271 42.4336196,20 41.6160674,20 L4.60615482,20 C3.78046498,20 3.00754265,19.3342028 2.87777778,18.5 C2.74891134,17.6715729 3.32193595,17 4.13948815,17 Z" id="Rectangle-117-Copy-7"></path>
                        <path d="M6.95270852,35 L33.9361804,35 C34.7691716,35 35.5480129,35.6657972 35.6777778,36.5 C35.8066442,37.3284271 35.2424562,38 34.402847,38 L7.41937519,38 C6.58638394,38 5.80754265,37.3342028 5.67777778,36.5 C5.54891134,35.6715729 6.11309931,35 6.95270852,35 Z" id="Rectangle-117-Copy-8"></path>
                        <path d="M9.59213949,52 L26.5856383,52 C27.4158607,52 28.1924573,52.6657972 28.3222222,53.5 C28.4510887,54.3284271 27.8901198,55 27.052305,55 L10.0588062,55 C9.22858377,55 8.4519871,54.3342028 8.32222222,53.5 C8.19335578,52.6715729 8.75432468,52 9.59213949,52 Z" id="Rectangle-117-Copy-9"></path>
                        <path d="M12.3859899,70 L19.3917879,70 C20.2186139,70 20.9924573,70.6657972 21.1222222,71.5 C21.2510887,72.3284271 20.6838996,73 19.8584545,73 L12.8526566,73 C12.0258305,73 11.2519871,72.3342028 11.1222222,71.5 C10.9933558,70.6715729 11.5605449,70 12.3859899,70 Z" id="Rectangle-117-Copy-10"></path>
                        <path d="M15.0333333,87 C15.8617605,87 16.6369018,87.6657972 16.7666667,88.5 C16.8955331,89.3284271 16.3342028,90 15.5,90 C14.6715729,90 13.8964315,89.3342028 13.7666667,88.5 C13.6378002,87.6715729 14.1991306,87 15.0333333,87 Z" id="Rectangle-117-Copy-11"></path>
                    </g>
                </g>
            </g>
        </g>
    </g>
</svg>