<?xml version="1.0" encoding="UTF-8" standalone="no"?>
<svg width="237px" height="239px" viewBox="0 0 237 239" version="1.1" xmlns="http://www.w3.org/2000/svg" xmlns:xlink="http://www.w3.org/1999/xlink">
    <!-- Generator: sketchtool 3.8.3 (29802) - http://www.bohemiancoding.com/sketch -->
    <title>88B1A6CD-5527-4D10-B514-189D3BED4F73</title>
    <desc>Created with sketchtool.</desc>
    <defs></defs>
    <g id="Pages" stroke="none" stroke-width="1" fill="none" fill-rule="evenodd">
        <g id="Vrachrb-MainPage-v3" transform="translate(-852.000000, -415.000000)" fill="#00BCD5">
            <g id="Slider" transform="translate(40.000000, 359.000000)">
                <g id="Piggy-baank" transform="translate(812.000000, 56.000000)">
                    <path d="M0.7,154.5 C0.7,158.7 0.4,162.9 3.1,165.6 C4.9,167.1 7.3,168 10,168 L19.6,168 C24.4,180.3 32.8,191.4 44.2,200.4 L44.2,222.3 C44.2,231 51.4,238.2 60.1,238.2 L74.5,238.2 C83.2,238.2 90.4,231 90.4,222.3 L90.4,220.8 C105.7,223.5 121.9,223.2 136.9,219.9 L136.9,222 C136.9,230.7 144.1,237.9 152.8,237.9 L167.2,237.9 C175.9,237.9 183.1,230.7 183.1,222 L183.1,196.8 C199,182.4 208,163.8 208,144.6 L208,144 C208,144 208,142.5 207.7,140.1 L208,140.1 C209.2,140.4 210.7,140.7 211.9,140.7 C214.6,140.7 217,139.8 219.4,138.3 C220.6,137.4 221.5,136.8 222.4,135.9 C222.4,135.9 222.7,135.9 222.7,136.2 C227.5,138.6 232.3,137.7 235.9,134.1 C237.4,132.6 237.1,130.5 235.9,129 C234.4,127.5 232.3,127.8 230.8,129 C230.2,129.6 229.3,130.8 226.9,129.9 C229,126 229,121.8 227.5,119.1 C226,115.8 223,114 219.7,114.6 C216.1,115.5 213.4,117.9 213.1,121.2 C212.8,124.5 214.3,128.4 216.7,131.4 C216.1,131.7 215.8,132.3 215.2,132.6 C213.7,133.5 211.9,133.8 210.4,133.5 C208.3,132.9 206.8,130.8 205.9,128.1 C205.9,128.1 205.9,128.1 205.9,127.8 C199.3,102.9 178,82.5 149.2,72.6 C157.6,65.1 163,54 163,41.7 C163,18.9 144.4,0.3 121.6,0.3 C98.8,0.3 80.2,18.9 80.2,41.7 C80.2,51.9 83.8,61.2 89.8,68.4 C84.7,69.6 79.3,70.8 74.2,72.6 C67,65.1 55.3,63 45.7,68.4 L43.9,69.3 L43.9,89.1 C32.5,98.1 24.1,109.2 19.3,121.5 L10,121.5 C7,121.5 4.9,122.4 3.1,123.9 C0.4,126.6 0.4,130.8 0.7,135 L0.7,137.4 L0.7,151.8 L0.7,154.5 L0.7,154.5 Z M221.5,121.5 C221.8,121.8 222.1,122.4 222.1,123.3 C222.1,123.6 222.1,124.2 221.8,124.8 C221.2,123.6 220.9,122.7 220.9,121.8 C220.9,122.1 220.9,121.8 221.5,121.5 L221.5,121.5 Z M121.9,7.5 C140.8,7.5 156.1,22.8 156.1,41.7 C156.1,60.6 140.8,75.9 121.9,75.9 C103,75.9 87.7,60.6 87.7,41.7 C87.7,22.8 103,7.5 121.9,7.5 L121.9,7.5 Z M7.9,134.7 C7.9,132.6 7.9,129.6 8.5,129 C8.5,129 9.1,128.7 10.3,128.7 L25,128.7 L25.9,126.3 C30.1,114 38.5,102.6 50.2,93.6 L51.7,92.4 L51.7,73.5 C58.6,70.8 66.4,73.2 70.9,78.9 L72.4,81 L74.8,80.1 C81.7,77.7 89.8,75.6 96.7,74.4 C97.3,75 98.2,75.6 98.8,75.9 C97,76.2 95.5,78 95.8,79.8 C96.1,81.9 97.9,83.1 99.7,83.1 C100,83.1 122.5,80.7 144.1,88.2 C144.4,88.2 145,88.5 145.3,88.5 C146.8,88.5 148.3,87.6 148.6,86.1 C149.2,84.3 148.3,82.2 146.5,81.6 C144.1,80.7 141.7,80.1 139.3,79.5 C140.2,79.2 141.1,78.6 142,78 C172,86.7 194.2,107.1 199.9,132.3 C201.4,139.2 201.4,144 201.4,144.3 L201.4,144.9 C201.4,162.6 193,179.7 177.7,192.9 L176.5,194.1 L176.5,194.1 C172.3,197.7 166,202.2 166,202.2 C164.5,203.4 163.9,205.5 165.1,207.3 C165.7,208.2 166.9,208.8 168.1,208.8 C168.7,208.8 169.6,208.5 170.2,208.2 C170.5,208.2 173.5,205.8 176.5,203.4 L176.5,222.6 C176.5,227.4 172.6,231.3 167.8,231.3 L153.4,231.3 C148.6,231.3 144.7,227.4 144.7,222.6 L144.7,211.2 L140.2,212.4 C123.4,216.3 105.1,216.9 88,213 L83.5,212.1 L83.5,212.1 C78.4,210.3 70.9,206.4 70.6,206.4 C68.8,205.5 66.7,206.1 65.8,207.9 C64.9,209.7 65.5,211.8 67.3,212.7 C67.6,213 76.3,217.2 81.7,219 C82,219 82.6,219.3 82.9,219.3 L83.2,219.3 L83.2,222.3 C83.2,227.1 79.3,231 74.5,231 L60.1,231 C55.3,231 51.4,227.1 51.4,222.3 L51.4,196.8 L49.9,195.6 C38.2,186.6 29.8,175.5 25.6,162.9 L24.7,160.5 L10,160.5 C8.8,160.5 8.5,160.2 8.2,160.2 C7.6,159.6 7.6,156.3 7.6,154.2 L7.6,151.5 L7.6,137.1 C7.9,136.5 7.9,135.6 7.9,134.7 L7.9,134.7 Z" id="Shape"></path>
                    <path d="M112.051829,40.1707317 L115.847561,40.1707317 L115.847561,24.9878049 L124.353659,24.9878049 C126.396352,24.9878049 128.134139,25.2698143 129.567073,25.8338415 C131.000007,26.3978687 132.166154,27.1448124 133.065549,28.0746951 C133.964944,29.0045778 134.620425,30.0868841 135.032012,31.3216463 C135.4436,32.5564086 135.64939,33.8292617 135.64939,35.1402439 C135.64939,36.481714 135.4436,37.7469453 135.032012,38.9359756 C134.620425,40.1250059 133.964944,41.1768247 133.065549,42.0914634 C132.166154,43.0061021 131.000007,43.7301803 129.567073,44.2637195 C128.134139,44.7972588 126.396352,45.0640244 124.353659,45.0640244 L121.792683,45.0640244 L121.792683,48.5396341 L129.841463,48.5396341 L129.841463,53.25 L121.792683,53.25 L121.792683,57 L115.847561,57 L115.847561,53.25 L112.051829,53.25 L112.051829,48.5396341 L115.847561,48.5396341 L115.847561,45.0640244 L112.051829,45.0640244 L112.051829,40.1707317 Z M123.759146,40.1707317 C124.582321,40.1707317 125.352131,40.1021348 126.068598,39.964939 C126.785065,39.8277432 127.41768,39.5762213 127.966463,39.2103659 C128.515247,38.8445104 128.942072,38.3338447 129.246951,37.6783537 C129.551831,37.0228626 129.704268,36.1768345 129.704268,35.1402439 C129.704268,34.1036534 129.551831,33.2347596 129.246951,32.5335366 C128.942072,31.8323136 128.515247,31.2759167 127.966463,30.8643293 C127.41768,30.4527418 126.785065,30.1631106 126.068598,29.9954268 C125.352131,29.8277431 124.582321,29.7439024 123.759146,29.7439024 L121.792683,29.7439024 L121.792683,40.1707317 L123.759146,40.1707317 Z" id="₽"></path>
                    <path d="M47.2,135.9 C48.1,136.2 49.3,136.5 50.5,136.5 C54.7,136.5 59.2,133.2 61,128.4 C63.7,122.1 61.6,115.5 56.5,113.4 C55.6,113.1 54.4,112.8 53.2,112.8 C49,112.8 44.5,116.1 42.7,120.9 C40,127.2 42.1,133.8 47.2,135.9 L47.2,135.9 Z M49.3,123.6 C50.2,121.2 52,120 53.2,120 L53.5,120 C54.4,120.3 55.3,123 54.1,125.7 C52.9,128.4 50.8,129.9 49.6,129.3 C49,129 48.1,126.6 49.3,123.6 L49.3,123.6 Z" id="Shape"></path>
                </g>
            </g>
        </g>
    </g>
</svg>